<?xml version="1.0" standalone="no"?>
<!DOCTYPE svg PUBLIC "-//W3C//DTD SVG 20010904//EN"
 "http://www.w3.org/TR/2001/REC-SVG-20010904/DTD/svg10.dtd">
<svg version="1.0" xmlns="http://www.w3.org/2000/svg"
 width="180.000000pt" height="164.000000pt" viewBox="0 0 180.000000 164.000000"
 preserveAspectRatio="xMidYMid meet">

<g transform="translate(0.000000,164.000000) scale(0.100000,-0.100000)"
fill="#000000" stroke="none">
<path d="M850 1395 c0 -181 10 -216 79 -282 67 -64 326 -270 430 -342 41 -28
78 -48 84 -44 14 8 1 237 -18 299 -22 76 -103 149 -422 382 l-153 112 0 -125z"/>
<path d="M240 1341 c0 -152 13 -203 64 -259 60 -65 850 -652 1067 -792 l64
-41 9 33 c12 46 1 204 -18 257 -9 25 -27 59 -41 77 -33 43 -1030 775 -1117
820 l-28 15 0 -110z"/>
<path d="M236 891 c-8 -90 6 -197 34 -250 23 -44 88 -108 200 -193 121 -92
336 -238 351 -238 9 0 11 28 6 123 -8 155 -18 188 -74 249 -39 41 -402 319
-484 370 l-27 17 -6 -78z"/>
</g>
</svg>
