<?xml version="1.0" standalone="no"?>
<!DOCTYPE svg PUBLIC "-//W3C//DTD SVG 20010904//EN"
 "http://www.w3.org/TR/2001/REC-SVG-20010904/DTD/svg10.dtd">
<svg version="1.0" xmlns="http://www.w3.org/2000/svg"
 width="370.000000pt" height="105.000000pt" viewBox="0 0 370.000000 105.000000"
 preserveAspectRatio="xMidYMid meet">

<g transform="translate(0.000000,105.000000) scale(0.100000,-0.100000)"
fill="#fff" stroke="none">
<path d="M510 866 c0 -80 3 -98 23 -127 20 -30 310 -258 330 -259 11 0 8 125
-4 174 -13 54 -35 75 -211 205 l-138 101 0 -94z"/>
<path d="M142 830 c5 -73 10 -97 29 -125 25 -36 685 -520 692 -507 2 4 5 32 6
63 3 68 -12 127 -40 163 -19 25 -670 496 -685 496 -4 0 -4 -41 -2 -90z"/>
<path d="M1200 460 l0 -200 35 0 35 0 0 135 c0 74 3 135 8 134 4 0 58 -61 121
-135 105 -126 115 -135 145 -132 l31 3 0 195 0 195 -35 0 -35 0 -5 -135 -5
-135 -118 138 c-102 119 -122 137 -147 137 l-30 0 0 -200z"/>
<path d="M1714 647 c-2 -7 -3 -96 -2 -197 l3 -185 193 -3 192 -2 0 35 0 35
-155 0 -155 0 0 44 c0 53 4 55 138 53 l97 -1 3 32 3 32 -120 0 -121 0 0 50 0
50 155 0 155 0 0 35 0 35 -190 0 c-146 0 -192 -3 -196 -13z"/>
<path d="M2206 652 c-2 -4 29 -49 70 -99 l75 -92 -76 -92 c-41 -51 -75 -97
-75 -101 0 -4 18 -8 40 -8 40 0 57 15 136 124 15 21 16 20 52 -23 90 -107 84
-103 131 -99 l43 3 -152 190 c-84 105 -157 193 -163 197 -16 10 -75 10 -81 0z"/>
<path d="M2478 618 c-19 -24 -38 -48 -42 -55 -7 -13 22 -66 35 -61 11 5 119
138 119 149 0 5 -17 9 -39 9 -33 0 -43 -6 -73 -42z"/>
<path d="M2710 496 l0 -166 29 -32 29 -33 132 0 132 0 29 33 29 33 -2 162 -3
162 -30 0 -30 0 -5 -153 c-4 -121 -8 -155 -20 -162 -19 -13 -181 -13 -200 0
-12 7 -16 41 -20 162 l-5 153 -32 3 -33 3 0 -165z"/>
<path d="M3284 646 c-44 -20 -64 -53 -64 -107 0 -35 6 -52 25 -73 35 -38 65
-46 170 -46 113 0 125 -4 125 -40 0 -45 -18 -51 -131 -48 -97 3 -105 5 -114
26 -7 16 -18 22 -42 22 -29 0 -33 -3 -33 -26 0 -72 47 -94 202 -94 95 0 118 3
146 20 72 44 69 165 -5 199 -22 11 -123 20 -240 21 -7 0 -17 9 -23 21 -9 16
-8 26 5 45 14 22 21 24 106 24 93 0 129 -10 129 -35 0 -10 11 -15 35 -15 32 0
35 3 35 29 0 35 -39 76 -81 85 -57 11 -213 6 -245 -8z"/>
<path d="M140 552 c0 -122 15 -143 194 -274 82 -59 154 -108 159 -108 16 0 3
161 -16 197 -10 18 -39 50 -66 70 -85 66 -259 193 -265 193 -3 0 -6 -35 -6
-78z"/>
</g>
</svg>
