<svg xmlns="http://www.w3.org/2000/svg" viewBox="0 0 180 164" width="32" height="32">
  <rect width="180" height="164" rx="20" ry="20" fill="#FFFFFF"/>
  <g transform="translate(0,164) scale(0.1,-0.1)" fill="#000000">
    <path d="M850 1395 c0 -181 10 -216 79 -282 67 -64 326 -270 430 -342 41 -28 78 -48 84 -44 14 8 1 237 -18 299 -22 76 -103 149 -422 382 l-153 112 0 -125z"/>
    <path d="M240 1341 c0 -152 13 -203 64 -259 60 -65 850 -652 1067 -792 l64 -41 9 33 c12 46 1 204 -18 257 -9 25 -27 59 -41 77 -33 43 -1030 775 -1117 820 l-28 15 0 -110z"/>
    <path d="M236 891 c-8 -90 6 -197 34 -250 23 -44 88 -108 200 -193 121 -92 336 -238 351 -238 9 0 11 28 6 123 -8 155 -18 188 -74 249 -39 41 -402 319 -484 370 l-27 17 -6 -78z"/>
  </g>
</svg>
